HIERARCHY
ROOT Hips
{
	OFFSET -8.665500 -1.496397 44.816700
	CHANNELS 6 Xposition Yposition Zposition Zrotation Xrotation Yrotation
	JOINT Chest
	{
		OFFSET -0.698600 0.806100 5.350899
		CHANNELS 6 Xposition Yposition Zposition Zrotation Xrotation Yrotation
		JOINT Chest2
		{
			OFFSET 0.000000 0.000000 4.409100
			CHANNELS 6 Xposition Yposition Zposition Zrotation Xrotation Yrotation
			JOINT Neck
			{
				OFFSET 0.000000 0.000001 10.248299
				CHANNELS 6 Xposition Yposition Zposition Zrotation Xrotation Yrotation
				JOINT Head
				{
					OFFSET 0.000000 0.000000 2.173897
					CHANNELS 6 Xposition Yposition Zposition Zrotation Xrotation Yrotation
					End Site
					{
						OFFSET 0.000000 0.000001 9.966400
					}
				}
			}
			JOINT LeftCollar
			{
				OFFSET 2.100600 -0.520900 6.016098
				CHANNELS 6 Xposition Yposition Zposition Zrotation Xrotation Yrotation
				JOINT LeftShoulder
				{
					OFFSET 5.536700 0.000000 0.000000
					CHANNELS 6 Xposition Yposition Zposition Zrotation Xrotation Yrotation
					JOINT LeftElbow
					{
						OFFSET 0.000000 -0.000001 -12.362099
						CHANNELS 6 Xposition Yposition Zposition Zrotation Xrotation Yrotation
						JOINT LeftWrist
						{
							OFFSET 0.000000 -0.000001 -10.273201
							CHANNELS 6 Xposition Yposition Zposition Zrotation Xrotation Yrotation
							End Site
							{
								OFFSET 0.000000 -0.000000 -2.173901
							}
						}
					}
				}
			}
			JOINT RightCollar
			{
				OFFSET -2.899500 -1.655900 6.981701
				CHANNELS 6 Xposition Yposition Zposition Zrotation Xrotation Yrotation
				JOINT RightShoulder
				{
					OFFSET -4.387501 0.000000 0.000000
					CHANNELS 6 Xposition Yposition Zposition Zrotation Xrotation Yrotation
					JOINT RightElbow
					{
						OFFSET 0.000000 -0.000001 -10.858101
						CHANNELS 6 Xposition Yposition Zposition Zrotation Xrotation Yrotation
						JOINT RightWrist
						{
							OFFSET 0.000000 -0.000001 -12.079601
							CHANNELS 6 Xposition Yposition Zposition Zrotation Xrotation Yrotation
							End Site
							{
								OFFSET 0.000000 0.000000 -2.173901
							}
						}
					}
				}
			}
		}
	}
	JOINT LeftHip
	{
		OFFSET 2.190800 0.073900 -2.522499
		CHANNELS 6 Xposition Yposition Zposition Zrotation Xrotation Yrotation
		JOINT LeftKnee
		{
			OFFSET 0.000000 -0.000002 -20.305000
			CHANNELS 6 Xposition Yposition Zposition Zrotation Xrotation Yrotation
			JOINT LeftAnkle
			{
				OFFSET 0.000000 -0.000001 -16.771700
				CHANNELS 6 Xposition Yposition Zposition Zrotation Xrotation Yrotation
				End Site
				{
					OFFSET 0.000000 -8.738000 0.000001
				}
			}
		}
	}
	JOINT RightHip
	{
		OFFSET -2.029500 0.054300 -2.705200
		CHANNELS 6 Xposition Yposition Zposition Zrotation Xrotation Yrotation
		JOINT RightKnee
		{
			OFFSET 0.000000 -0.000002 -20.030399
			CHANNELS 6 Xposition Yposition Zposition Zrotation Xrotation Yrotation
			JOINT RightAnkle
			{
				OFFSET 0.000000 -0.000001 -17.032700
				CHANNELS 6 Xposition Yposition Zposition Zrotation Xrotation Yrotation
				End Site
				{
					OFFSET 0.000000 -8.823600 0.000001
				}
			}
		}
	}
}
MOTION
Frames: 9
Frame Time: 0.041667
16.317196 -17.759298 15.364292 2652.476971 5.290768 -6.908969 -0.698600 0.806099 5.350904 -29.204352 -11.098314 17.568572 -0.000000 -0.000001 4.409108 8.934026 -5.354302 -0.836800 -0.000002 0.000005 10.248295 -23.812934 -52.340460 -9.281298 -0.000001 0.000005 2.173895 -5.150364 -14.483445 -6.054878 2.100597 -0.520901 6.016098 -21.263863 11.256790 3.686702 5.536699 0.000005 -0.000001 432.047632 222.953016 64.721418 -0.000001 0.000001 -12.362098 374.806849 -14.525161 361.539753 0.000000 -0.000000 -10.273210 2409.179513 202.855116 -144.843177 -2.899504 -1.655902 6.981697 11.897715 19.950697 9.291240 -4.387499 -0.000003 -0.000002 -363.091763 -502.074857 381.922677 0.000001 -0.000004 -10.858101 132.036053 -153.903819 144.425074 -0.000002 -0.000000 -12.079608 355.428783 -21.710176 -40.304345 2.190802 0.073902 -2.522495 -334.774045 -202.226506 -121.254204 0.000003 0.000004 -20.305006 -1038.066138 -39.496201 66.811401 -0.000006 0.000004 -16.771708 1558.153570 40.215406 72.949938 -2.029500 0.054296 -2.705197 -435.540618 -36.381337 -72.457522 0.000001 -0.000004 -20.030397 345.290187 186.026663 30.774131 -0.000000 -0.000003 -17.032698 17.645102 55.302481 -140.798558
16.238998 -17.790598 15.350094 2652.865363 5.116128 -6.999198 -0.698601 0.806100 5.350899 -29.081412 -9.770078 17.291218 0.000000 0.000001 4.409098 8.798645 -5.317145 -0.724494 0.000001 -0.000002 10.248299 -22.993333 -51.758743 -7.965224 -0.000003 0.000006 2.173895 -5.860612 -14.358106 -6.458060 2.100603 -0.520903 6.016103 -21.931456 10.124784 4.570267 5.536698 0.000004 0.000004 433.625706 223.004392 66.643658 0.000000 -0.000001 -12.362096 375.617347 -14.730947 361.781077 -0.000002 0.000000 -10.273201 2407.896968 202.848313 -145.111850 -2.899499 -1.655901 6.981701 11.948757 20.348078 9.958148 -4.387500 0.000000 0.000002 -363.031002 -500.602541 381.826262 -0.000004 0.000003 -10.858110 130.472541 -153.025949 142.119940 -0.000000 -0.000004 -12.079598 355.682893 -21.764454 -40.888579 2.190804 0.073902 -2.522505 -335.595935 -201.909572 -121.197144 0.000003 0.000004 -20.305002 -1037.508576 -39.703886 67.104334 -0.000006 0.000003 -16.771708 1558.255750 40.202599 72.946659 -2.029499 0.054298 -2.705199 -435.990892 -36.428367 -72.449982 -0.000000 -0.000005 -20.030403 345.361303 186.108503 30.695516 -0.000001 -0.000006 -17.032696 16.724246 55.152596 -141.649873
16.166996 -17.822996 15.339598 2653.125675 4.831043 -7.036582 -0.698597 0.806099 5.350902 -29.551469 -8.515369 17.243830 0.000001 0.000000 4.409108 8.655327 -5.386682 -0.766783 0.000002 0.000008 10.248291 -22.087724 -50.874941 -7.668755 0.000002 -0.000001 2.173896 -5.953183 -14.352358 -6.331566 2.100602 -0.520896 6.016100 -21.806390 9.109573 4.952667 5.536698 0.000004 -0.000004 435.389370 223.136570 68.737426 -0.000000 -0.000000 -12.362095 377.240118 -15.178195 362.203238 -0.000001 0.000007 -10.273195 2406.117184 202.801376 -145.405534 -2.899497 -1.655895 6.981701 12.934994 20.869409 9.048983 -4.387495 -0.000000 0.000000 -364.490368 -499.369665 379.899001 -0.000003 -0.000002 -10.858103 129.110957 -152.207118 140.120771 0.000003 0.000000 -12.079600 355.473152 -21.843063 -41.483263 2.190802 0.073900 -2.522500 -336.448835 -201.377418 -121.004533 0.000002 0.000003 -20.305002 -1036.805449 -39.998493 67.392090 -0.000005 0.000006 -16.771708 1558.446886 40.211089 72.934816 -2.029500 0.054296 -2.705199 -436.164406 -36.455015 -72.254092 -0.000001 -0.000005 -20.030397 345.448756 186.101918 30.617006 -0.000001 -0.000004 -17.032696 16.414300 55.147675 -141.964963
16.096897 -17.845802 15.332991 2653.351673 4.581712 -7.082927 -0.698601 0.806100 5.350905 -30.002139 -7.362505 17.207495 0.000001 0.000002 4.409102 9.000323 -5.376618 -0.663088 0.000001 0.000002 10.248301 -21.469001 -49.926852 -7.331197 0.000001 0.000001 2.173902 -5.978269 -14.428474 -6.106019 2.100602 -0.520899 6.016106 -22.655640 8.203713 5.288603 5.536698 -0.000001 -0.000002 437.479682 223.040387 70.657754 -0.000000 0.000003 -12.362097 379.217458 -15.540709 362.625125 -0.000002 0.000005 -10.273206 2404.126266 202.834297 -145.565866 -2.899500 -1.655900 6.981704 13.353052 21.214808 8.237023 -4.387502 0.000002 0.000004 -365.694503 -498.200883 378.241369 -0.000002 0.000003 -10.858105 127.927285 -151.620856 138.246239 0.000001 -0.000004 -12.079603 355.219205 -21.918888 -41.785970 2.190802 0.073902 -2.522496 -337.058170 -201.037206 -120.932966 0.000001 0.000003 -20.305006 -1036.353345 -40.194410 67.661295 -0.000005 0.000004 -16.771709 1558.613652 40.226802 72.930807 -2.029499 0.054298 -2.705197 -436.356580 -36.440985 -72.084505 0.000000 -0.000004 -20.030399 345.601643 186.113352 30.556450 -0.000001 -0.000004 -17.032694 15.725875 55.064780 -142.654539
16.031796 -17.866598 15.324198 2653.577014 4.327995 -7.086691 -0.698599 0.806100 5.350899 -30.424108 -6.159340 17.141832 0.000005 0.000001 4.409102 9.207986 -5.376825 -0.633586 -0.000001 -0.000005 10.248291 -20.708869 -48.951874 -6.920083 0.000001 0.000004 2.173897 -5.896125 -14.353091 -5.753710 2.100601 -0.520900 6.016100 -22.460109 10.762722 5.719706 5.536700 0.000004 0.000004 435.027644 222.674303 67.953388 0.000001 -0.000000 -12.362095 379.324009 -16.210339 362.812463 -0.000001 -0.000003 -10.273201 2403.191459 202.844734 -145.851641 -2.899499 -1.655899 6.981699 13.962607 21.720239 7.320635 -4.387501 -0.000002 0.000001 -366.992266 -497.194987 376.485218 0.000000 -0.000000 -10.858102 126.662867 -151.119219 136.323158 -0.000003 -0.000003 -12.079593 355.085771 -21.733227 -41.576598 2.190799 0.073901 -2.522500 -337.866345 -200.500831 -120.720520 0.000001 0.000001 -20.305006 -1035.661693 -40.533375 67.907469 -0.000006 0.000003 -16.771709 1558.876477 40.252791 72.924694 -2.029498 0.054296 -2.705199 -436.399091 -36.546823 -71.839923 0.000000 -0.000004 -20.030396 345.646695 186.036895 30.492987 -0.000001 -0.000002 -17.032696 17.327970 55.375185 -141.325548
15.969495 -17.888300 15.321899 2653.917977 4.195887 -7.214532 -0.698601 0.806100 5.350897 -30.564509 -5.070559 17.184099 -0.000001 0.000002 4.409096 9.174011 -5.464071 -0.619841 0.000003 -0.000000 10.248295 -20.424624 -47.726247 -6.679020 -0.000000 0.000002 2.173903 -5.657735 -14.286062 -5.597399 2.100601 -0.520902 6.016105 -22.811346 11.026854 6.265719 5.536697 0.000004 0.000002 435.558103 222.564596 68.451261 0.000001 0.000001 -12.362096 381.183678 -16.734756 363.490045 0.000000 -0.000000 -10.273208 2400.979789 202.823027 -145.884207 -2.899501 -1.655898 6.981703 14.735568 22.158286 6.075790 -4.387499 0.000001 0.000001 -369.358298 -495.914955 374.032688 -0.000000 0.000005 -10.858102 124.995713 -150.537000 134.516095 -0.000003 0.000002 -12.079597 355.021786 -21.859908 -42.000910 2.190798 0.073899 -2.522497 -338.640642 -200.110923 -120.741557 0.000003 0.000003 -20.305004 -1035.051020 -40.822681 68.187370 -0.000005 0.000004 -16.771706 1559.121927 40.264105 72.928143 -2.029502 0.054295 -2.705196 -436.783494 -36.571087 -71.798047 0.000002 -0.000005 -20.030401 345.867884 186.027538 30.448037 -0.000001 -0.000002 -17.032696 18.812561 55.726065 -140.103613
15.898095 -17.908300 15.328602 2654.073159 3.806391 -7.269361 -0.698598 0.806100 5.350898 -30.286684 -3.585555 17.469932 -0.000002 0.000001 4.409101 9.028694 -5.578675 -0.602204 -0.000001 -0.000006 10.248305 -20.599388 -46.441499 -6.772747 -0.000001 0.000002 2.173903 -5.301723 -14.254642 -5.316978 2.100600 -0.520902 6.016107 -23.112025 11.427237 6.585854 5.536698 0.000006 -0.000006 435.644464 222.722401 68.652629 0.000000 -0.000000 -12.362092 381.233402 -17.329783 363.851827 -0.000000 0.000003 -10.273204 2400.156669 202.890482 -145.980226 -2.899503 -1.655904 6.981703 14.980326 23.032742 4.565875 -4.387497 -0.000002 0.000002 -371.960682 -495.334444 371.055409 0.000003 0.000002 -10.858101 123.409729 -149.833423 132.944059 -0.000001 -0.000000 -12.079592 354.595882 -22.048969 -42.253456 2.190806 0.073900 -2.522503 -339.084796 -199.738391 -120.752704 0.000002 0.000005 -20.305004 -1034.737705 -40.956686 68.535136 -0.000005 0.000006 -16.771709 1559.268585 40.239428 72.960934 -2.029497 0.054300 -2.705204 -436.695904 -36.661518 -71.341715 -0.000001 -0.000004 -20.030397 345.949054 185.960957 30.425785 -0.000002 -0.000007 -17.032698 21.720804 56.410512 -137.607425
15.830697 -17.925497 15.332495 2654.284075 3.547800 -7.232598 -0.698596 0.806102 5.350900 -30.025296 -2.205590 17.534926 0.000001 0.000003 4.409103 8.898633 -5.621771 -0.581094 0.000001 0.000001 10.248296 -20.453481 -45.183197 -6.707987 -0.000001 0.000000 2.173895 -5.311878 -14.423666 -5.100542 2.100603 -0.520899 6.016101 -23.858944 11.884593 7.335013 5.536698 0.000007 0.000003 436.333630 221.701657 68.856715 -0.000000 0.000001 -12.362099 381.329680 -17.821627 363.919610 -0.000000 0.000005 -10.273209 2400.027278 202.960642 -145.917102 -2.899501 -1.655901 6.981702 15.500705 23.023026 3.371466 -4.387496 -0.000001 -0.000001 -374.043070 -494.060914 368.865377 -0.000008 -0.000001 -10.858101 122.010688 -149.564860 131.112967 -0.000001 -0.000001 -12.079600 354.472174 -22.163940 -41.937631 2.190802 0.073900 -2.522500 -339.499744 -199.601227 -120.735301 0.000001 0.000005 -20.305006 -1034.530067 -41.038539 68.872677 -0.000006 0.000004 -16.771706 1559.347269 40.192812 73.015760 -2.029498 0.054297 -2.705202 -436.878789 -36.549380 -71.134091 0.000000 -0.000005 -20.030394 346.125246 185.967432 30.411629 -0.000001 0.000001 -17.032700 23.581068 56.889458 -135.993506
15.764197 -17.944899 15.343994 2654.478599 3.369199 -7.248527 -0.698597 0.806100 5.350897 -29.417440 -0.855846 17.628174 0.000003 -0.000001 4.409102 8.564615 -5.752090 -0.572984 -0.000003 0.000001 10.248298 -20.514941 -43.742659 -6.566629 -0.000000 -0.000003 2.173898 -5.178696 -14.518286 -4.878911 2.100598 -0.520901 6.016101 -24.509529 12.578553 8.473964 5.536699 0.000006 -0.000002 436.589407 220.775947 68.874398 -0.000001 0.000002 -12.362101 381.071553 -18.403784 364.026625 -0.000001 0.000005 -10.273205 2399.816143 202.949318 -145.881926 -2.899505 -1.655902 6.981701 16.395862 23.332701 1.367095 -4.387496 -0.000004 0.000005 -377.002017 -493.170694 365.905146 -0.000000 -0.000007 -10.858106 120.821375 -149.002093 129.586147 -0.000000 -0.000003 -12.079600 353.985482 -22.134807 -42.008901 2.190801 0.073900 -2.522499 -339.785164 -199.604028 -120.852233 0.000002 0.000004 -20.305008 -1034.424063 -41.090561 69.234902 -0.000006 0.000005 -16.771706 1559.428247 40.128516 73.098734 -2.029497 0.054297 -2.705200 -437.098229 -36.471161 -71.006490 -0.000001 -0.000001 -20.030396 346.329660 185.979071 30.407463 -0.000002 -0.000004 -17.032700 25.122375 57.329794 -134.713979
